<?xml version="1.0" encoding="utf-8"?>
<!-- Generator: Adobe Illustrator 26.2.1, SVG Export Plug-In . SVG Version: 6.00 Build 0)  -->
<svg version="1.1" id="Layer_1" xmlns="http://www.w3.org/2000/svg" xmlns:xlink="http://www.w3.org/1999/xlink" x="0px" y="0px"
	 viewBox="0 0 700 700" style="enable-background:new 0 0 700 700;" xml:space="preserve">
<path d="M70.4,10.7C43.5,10.7,22,33.4,22,60v577.4c0,26.6,21.6,49.3,48.4,49.3h560.7c26.9,0,48.4-22.7,48.4-49.3V60
	c0-26.6-21.6-49.3-48.4-49.3L70.4,10.7z M70.4,48.3h560.7c6.1,0,10.9,4.7,10.9,11.7v577.4c0,7.1-4.8,11.7-10.9,11.7H70.4
	c-6.1,0-10.9-4.7-10.9-11.7V60C59.5,52.9,64.3,48.3,70.4,48.3L70.4,48.3z M576.2,320.5c-8.3,0-15.7,3.7-20.8,9.4h-63.7
	c-0.6,0-1.2,0-1.8,0c-5,0.2-9.7,2.4-13,6.1c-3.4,3.7-5.1,8.6-4.9,13.5c0.2,5,2.4,9.7,6.1,13c3.7,3.4,8.6,5.1,13.5,4.9h63.7
	c5.2,5.7,12.5,9.4,20.8,9.4c15.6,0,28.2-12.6,28.2-28.2C604.4,333.1,591.8,320.5,576.2,320.5L576.2,320.5z"/>
</svg>
