<?xml version="1.0" encoding="utf-8"?>
<!-- Generator: Adobe Illustrator 23.0.0, SVG Export Plug-In . SVG Version: 6.00 Build 0)  -->
<svg version="1.1" id="Layer_1" xmlns="http://www.w3.org/2000/svg" xmlns:xlink="http://www.w3.org/1999/xlink" x="0px" y="0px"
	 viewBox="0 0 1000 1000" style="enable-background:new 0 0 1000 1000;" xml:space="preserve">
<g>
	<path d="M222.4,811.4c-21.9,0-48.8-5.4-80.8-16.4c-32-10.9-58.5-22.7-79.5-35.3c-21.1-12.6-28.2-20.6-21.5-24l376.2-214.6l5.1-2.5
		c3.4,0,7.1,2.5,11.4,7.6c4.2,5,5.4,8.4,3.8,10.1L252.7,801.3C247.6,808.1,237.5,811.4,222.4,811.4z M98.7,377.1
		c-18.5-6.7-27.8-39.5-27.8-98.5c0-33.7,2.5-64.8,7.6-93.4c5.1-28.6,10.9-39.5,17.7-32.8l323.2,295.4c3.4,1.7,3.8,6.3,1.3,13.9
		c-2.5,7.6-5.5,10.5-8.8,8.8L98.7,377.1z M459.7,101.9c0-15.1,17.7-30.3,53-45.4c35.4-15.2,71.5-25.2,108.6-30.3
		c37-5,53.8-3.3,50.5,5.1L492.6,425.1c-1.7,5-6.3,7.6-13.9,7.6c-7.6,0-11.4-2.5-11.4-7.6L459.7,101.9z M485,546.3v-2.5
		c0-3.3,2.9-7.6,8.8-12.6c5.9-5,9.7-5.9,11.4-2.5l196.9,260.1c8.4,11.8,2.9,34.1-16.4,66.9c-19.4,32.8-42.5,62.7-69.4,89.6
		c-26.9,26.9-41.3,35.3-42.9,25.2L485,546.3z M530.4,490.8c-3.4,0-6.3-3.8-8.8-11.4c-2.5-7.6-2.1-12.2,1.3-13.9l308-108.6
		c15.1-5,34.9,7.2,59.3,36.6c24.4,29.5,45,61,61.9,94.7c16.8,33.7,20.2,50.5,10.1,50.5L530.4,490.8z"/>
</g>
</svg>
