<?xml version="1.0" encoding="utf-8"?>
<!-- Generator: Adobe Illustrator 26.2.1, SVG Export Plug-In . SVG Version: 6.00 Build 0)  -->
<svg version="1.1" id="Layer_1" xmlns="http://www.w3.org/2000/svg" xmlns:xlink="http://www.w3.org/1999/xlink" x="0px" y="0px"
	 viewBox="0 0 700 700" style="enable-background:new 0 0 700 700;" xml:space="preserve">
<path d="M496.6,371.4h-292c-13.5,0-24.5,11-24.5,24.5v12.3c0,13.5,11,24.5,24.5,24.5h290.8c13.5,0,24.5-11,24.5-24.5v-12.3
	C521.1,382.4,510.1,371.4,496.6,371.4L496.6,371.4z"/>
<path d="M481.9,29c0-12.3-9.8-22.1-22.1-22.1H241.4c-12.3,0-22.1,9.8-22.1,22.1v330.1h263.8V29L481.9,29z"/>
<path d="M196,685.5c0,6.1,4.9,11,11,11c6.1,0,11-4.9,11-11V442.5H196L196,685.5z"/>
<path d="M481.9,685.5c0,6.1,4.9,11,11,11c6.1,0,11-4.9,11-11V442.5h-22.1L481.9,685.5z"/>
</svg>
