<?xml version="1.0" encoding="utf-8"?>
<!-- Generator: Adobe Illustrator 26.2.1, SVG Export Plug-In . SVG Version: 6.00 Build 0)  -->
<svg version="1.1" id="Layer_1" xmlns="http://www.w3.org/2000/svg" xmlns:xlink="http://www.w3.org/1999/xlink" x="0px" y="0px"
	 viewBox="0 0 700 700" style="enable-background:new 0 0 700 700;" xml:space="preserve">
<style type="text/css">
	.st0{fill:#FF7300;}
</style>
<path class="st0" d="M293.8,65.5l-233,233c-14,14-22,33.1-22,52.9v251.9c0,14.5,5.7,28.3,16,38.5c10.2,10.2,24.1,16,38.5,16h138.9
	c14.5,0,28.3-5.7,38.5-16c10.2-10.2,16-24.1,16-38.5v-77.7c0-4.7,1.9-9.2,5.2-12.6c3.4-3.4,7.9-5.2,12.6-5.2h90.9
	c4.7,0,9.2,1.9,12.6,5.2c3.4,3.4,5.2,7.9,5.2,12.6v77.7c0,14.5,5.7,28.3,16,38.5c10.2,10.2,24.1,16,38.5,16h138.9
	c14.5,0,28.3-5.7,38.5-16c10.2-10.2,16-24.1,16-38.5V351.2c0-19.8-7.9-38.8-22-52.9L406.1,65.5c-14.9-14.9-35.1-23.2-56.2-23.2
	S308.7,50.6,293.8,65.5L293.8,65.5z"/>
</svg>
