<svg xmlns="http://www.w3.org/2000/svg" width="36" height="36" viewBox="0 0 36 36">
  <defs>
  </defs>
  <g id="icons">
    <g>
      <path d="M30,3.417a1,1,0,0,0-1-1,1.022,1.022,0,0,0-.27.037l-16,4.447A1,1,0,0,0,12,7.863v16.55a6.629,6.629,0,0,0-6.144.057c-3.113,1.515-4.687,4.7-3.515,7.1s4.646,3.136,7.759,1.62A6.435,6.435,0,0,0,14,27.857V12.824l14-4V20.413a6.629,6.629,0,0,0-6.144.057c-3.113,1.515-4.687,4.7-3.515,7.1S22.987,30.7,26.1,29.186A6.429,6.429,0,0,0,30,23.833Z"/>
    </g>
  </g>
</svg>
