<?xml version="1.0" encoding="utf-8"?>
<!-- Generator: Adobe Illustrator 26.2.1, SVG Export Plug-In . SVG Version: 6.00 Build 0)  -->
<svg version="1.1" id="Layer_1" xmlns="http://www.w3.org/2000/svg" xmlns:xlink="http://www.w3.org/1999/xlink" x="0px" y="0px"
	 viewBox="0 0 16 16" style="enable-background:new 0 0 16 16;" xml:space="preserve">
<style type="text/css">
	.st0{fill-rule:evenodd;clip-rule:evenodd;fill:#ADADAD;}
</style>
<path class="st0" d="M12.8,12.8c1.2-1.2,2-2.9,2-4.8s-0.8-3.6-2-4.8s-2.9-2-4.8-2S4.4,2,3.2,3.2s-2,2.9-2,4.8s0.8,3.6,2,4.8
	s2.9,2,4.8,2S11.6,14,12.8,12.8L12.8,12.8z M6.6,10.7h0.9V7.3H6.6V6.2H8c0.3,0,0.6,0.3,0.6,0.6v4h0.9v1.1H6.6V10.7z M8,3.8
	c0.5,0,0.9,0.4,0.9,0.8c0,0.5-0.4,0.9-0.9,0.9S7.2,5.1,7.2,4.6C7.2,4.2,7.5,3.8,8,3.8z M12,12c1.1-1.1,1.7-2.5,1.7-4S13.1,5.1,12,4
	S9.5,2.3,8,2.3S5.1,2.9,4,4S2.3,6.5,2.3,8s0.6,2.9,1.7,4s2.5,1.7,4,1.7S10.9,13.1,12,12L12,12z"/>
</svg>
