<?xml version="1.0" encoding="utf-8"?>
<!-- Generator: Adobe Illustrator 26.2.1, SVG Export Plug-In . SVG Version: 6.00 Build 0)  -->
<svg version="1.1" id="Layer_1" xmlns="http://www.w3.org/2000/svg" xmlns:xlink="http://www.w3.org/1999/xlink" x="0px" y="0px"
	 viewBox="0 0 700 700" style="enable-background:new 0 0 700 700;" xml:space="preserve">
<style type="text/css">
	.st0{fill:#333333;}
</style>
<g>
	<path class="st0" d="M97.8,29h160.5c38,0,68.8,38,68.8,68.8v160.5c0,38-30.8,68.8-68.8,68.8H97.8c-38,0-68.8-38-68.8-68.8V97.8
		C29,59.8,59.8,29,97.8,29z"/>
	<path class="st0" d="M441.7,29h160.5c38,0,68.8,38,68.8,68.8v160.5c0,38-30.8,68.8-68.8,68.8H441.7c-38,0-68.8-38-68.8-68.8V97.8
		C372.9,59.8,403.7,29,441.7,29z"/>
	<path class="st0" d="M97.8,372.9h160.5c38,0,68.8,38,68.8,68.8v160.5c0,38-30.8,68.8-68.8,68.8H97.8c-38,0-68.8-38-68.8-68.8V441.7
		C29,403.7,59.8,372.9,97.8,372.9z"/>
	<path class="st0" d="M441.7,372.9h160.5c38,0,68.8,38,68.8,68.8v160.5c0,38-30.8,68.8-68.8,68.8H441.7c-38,0-68.8-38-68.8-68.8
		V441.7C372.9,403.7,403.7,372.9,441.7,372.9z"/>
</g>
</svg>
