<?xml version="1.0" encoding="utf-8"?>
<!-- Generator: Adobe Illustrator 26.2.1, SVG Export Plug-In . SVG Version: 6.00 Build 0)  -->
<svg version="1.1" id="Layer_1" xmlns="http://www.w3.org/2000/svg" xmlns:xlink="http://www.w3.org/1999/xlink" x="0px" y="0px"
	 viewBox="0 0 74 74" style="enable-background:new 0 0 74 74;" xml:space="preserve">
<style type="text/css">
	.st0{fill:#FFFFFF;}
</style>
<path d="M39.7,2.9h-5.4C16.8,2.9,2.5,17.1,2.5,34.6v5.5c0,17.5,14.3,31.8,31.8,31.8h5.4c17.5,0,31.8-14.3,31.8-31.8v-5.5
	C71.5,17.1,57.2,2.9,39.7,2.9z"/>
<path class="st0" d="M53.3,37.4c-0.1,0.7-0.3,1.5-0.8,2s-1.2,0.8-2,0.8H39.8v10.7c0,0.7-0.3,1.5-0.8,2s-1.2,0.8-2,0.8
	c-1.6,0-2.8-1.2-2.8-2.8V40.2H23.4c-1.6,0-2.8-1.2-2.8-2.8s1.2-2.8,2.8-2.8h10.7V23.9c0-1.6,1.2-2.8,2.8-2.8c0.8,0,1.5,0.3,2,0.8
	s0.8,1.2,0.8,2v10.7h10.7C52.2,34.5,53.3,35.9,53.3,37.4z"/>
</svg>
