<?xml version="1.0" encoding="utf-8"?>
<!-- Generator: Adobe Illustrator 26.2.1, SVG Export Plug-In . SVG Version: 6.00 Build 0)  -->
<svg version="1.1" id="Layer_1" xmlns="http://www.w3.org/2000/svg" xmlns:xlink="http://www.w3.org/1999/xlink" x="0px" y="0px"
	 viewBox="0 0 24 24" style="enable-background:new 0 0 24 24;" xml:space="preserve">
<style type="text/css">
	.st0{fill-rule:evenodd;clip-rule:evenodd;fill:#666666;}
</style>
<path class="st0" d="M3.9,10.8c0,1.8,0.7,3.5,2,4.9c2.5,2.5,6.4,2.7,9.1,0.5l3.6,3.6c0.2,0.2,0.4,0.2,0.6,0.2c0.2,0,0.4-0.1,0.6-0.2
	c0.2-0.2,0.2-0.4,0.2-0.6s-0.1-0.4-0.2-0.6l-3.6-3.6c2.1-2.7,1.9-6.6-0.5-9.1c-2.7-2.7-7-2.7-9.7,0C4.6,7.3,3.9,9.1,3.9,10.8
	L3.9,10.8z M5.5,10.8c0-1.3,0.5-2.7,1.5-3.7c2.1-2.1,5.4-2.1,7.4,0c2.1,2.1,2.1,5.4,0,7.4c-2.1,2.1-5.4,2.1-7.4,0
	C6.1,13.5,5.5,12.2,5.5,10.8L5.5,10.8z"/>
</svg>
