<svg id="Group_327" data-name="Group 327" xmlns="http://www.w3.org/2000/svg" xmlns:xlink="http://www.w3.org/1999/xlink" width="20.5" height="20.5" viewBox="0 0 20.5 20.5">
  <defs>
    <clipPath id="clip-path">
      <rect id="Rectangle_226" data-name="Rectangle 226" width="20.5" height="20.5" fill="none"/>
    </clipPath>
  </defs>
  <g id="Group_326" data-name="Group 326" clip-path="url(#clip-path)">
    <path id="Path_225" data-name="Path 225" d="M10.25,0A10.25,10.25,0,1,0,20.5,10.25,10.263,10.263,0,0,0,10.25,0Zm5.8,17.149L12.329,13.43a5.832,5.832,0,0,1-1.2.685,5.617,5.617,0,0,1-2.2.44,5.705,5.705,0,0,1-2.2-.44,5.874,5.874,0,0,1-1.786-1.2,5.466,5.466,0,0,1-1.2-1.786,5.617,5.617,0,0,1-.44-2.2,5.705,5.705,0,0,1,.44-2.2,5.874,5.874,0,0,1,1.2-1.786,5.466,5.466,0,0,1,1.786-1.2,5.617,5.617,0,0,1,2.2-.44,5.705,5.705,0,0,1,2.2.44,5.874,5.874,0,0,1,1.786,1.2,5.466,5.466,0,0,1,1.2,1.786,5.617,5.617,0,0,1,.44,2.2,5.705,5.705,0,0,1-.44,2.2,5.264,5.264,0,0,1-.685,1.2l3.718,3.718Z"/>
    <path id="Path_226" data-name="Path 226" d="M112.407,108a4.4,4.4,0,1,1-4.4-4.4,4.4,4.4,0,0,1,4.4,4.4" transform="translate(-99.074 -99.075)"/>
  </g>
</svg>
