<?xml version="1.0" encoding="utf-8"?>
<!-- Generator: Adobe Illustrator 26.2.1, SVG Export Plug-In . SVG Version: 6.00 Build 0)  -->
<svg version="1.1" id="Group_310" xmlns="http://www.w3.org/2000/svg" xmlns:xlink="http://www.w3.org/1999/xlink" x="0px" y="0px"
	 viewBox="0 0 20 16.9" style="enable-background:new 0 0 20 16.9;" xml:space="preserve">
<style type="text/css">
	.st0{fill-rule:evenodd;clip-rule:evenodd;fill:#333333;}
</style>
<g>
	<path class="st0" d="M3.4,0.6C2,0.6,0.8,1.8,0.8,3.2v10.6c0,1.4,1.2,2.6,2.6,2.6h13.2c1.4,0,2.6-1.2,2.6-2.6V6.2
		c0-1.4-1.2-3.1-2.6-3.1H9.3c-0.4,0-0.8-0.2-1-0.5L7.7,1.8C7.3,1,6.5,0.6,5.6,0.6H3.4z"/>
	<path class="st0" d="M9.3,1.3c0-0.4,0.3-0.7,0.7-0.7h5.7c0.4,0,0.7,0.3,0.7,0.7S16.1,2,15.7,2H10C9.6,2,9.3,1.7,9.3,1.3z"/>
</g>
</svg>
